<svg id="Layer_1" data-name="Layer 1" xmlns="http://www.w3.org/2000/svg" viewBox="0 0 48 64"><defs><style>.cls-1{fill-rule:evenodd;fill:#ffffff;}</style></defs><title>city-chooser</title><path class="cls-1" d="M2276,8576a24,24,0,0,1,48,0c0,13.25-24,40-24,40S2276,8589.25,2276,8576Zm24-20a20,20,0,0,0-20,20c0,7.63,11.26,23.53,20,33.9,8.74-10.36,20-26.27,20-33.9A20,20,0,0,0,2300,8556Zm-8,16a8,8,0,1,1,8,8A8,8,0,0,1,2292,8572Zm12,0a4,4,0,1,0-4,4A4,4,0,0,0,2304,8572Z" transform="translate(-2276 -8552)"/></svg>