<svg id="Слой_1" data-name="Слой 1" xmlns="http://www.w3.org/2000/svg" viewBox="0 0 254 254"><defs><style>.cls-1{fill:#666;}</style></defs><title>arrow-left</title><path class="cls-1" d="M156,123H106.45l20.3-20.3a3.5,3.5,0,1,0-5-5L95.67,123.88a4.79,4.79,0,0,0,0,5.81l26.13,26.13a3.5,3.5,0,0,0,5-5L106.87,131H156a4,4,0,0,0,0-8Z" transform="translate(0 0)"/><path class="cls-1" d="M127,0A127,127,0,1,0,254,127,127,127,0,0,0,127,0Zm.34,247.06A120.27,120.27,0,1,1,247.62,126.78,120.27,120.27,0,0,1,127.34,247.06Z" transform="translate(0 0)"/></svg>