<?xml version="1.0" encoding="utf-8"?>
<!-- Generated by IcoMoon.io -->
<!DOCTYPE svg PUBLIC "-//W3C//DTD SVG 1.1//EN" "http://www.w3.org/Graphics/SVG/1.1/DTD/svg11.dtd">
<svg version="1.1" xmlns="http://www.w3.org/2000/svg" xmlns:xlink="http://www.w3.org/1999/xlink" width="20" height="20" viewBox="0 0 20 20">
	<path fill="#1c1c1c" d="M379.865,768.711l-0.211-0.001c-6.182,0-11.303,5.031-11.414,11.213c-0.059,3.051,1.078,5.938,3.195,8.137   c2.117,2.196,4.965,3.437,8.016,3.492l0.211,0.001l0,0c6.182,0,11.303-5.031,11.414-11.213c0.057-3.052-1.078-5.938-3.195-8.136   C385.762,770.006,382.916,768.769,379.865,768.711z M379.662,790.733l-0.197-0.003c-2.83-0.05-5.473-1.201-7.438-3.24   c-1.967-2.038-3.02-4.721-2.969-7.551c0.104-5.74,4.855-10.409,10.596-10.409l0.195,0.002c2.832,0.049,5.473,1.201,7.439,3.241   c1.965,2.038,3.02,4.72,2.969,7.549C390.154,786.063,385.4,790.733,379.662,790.733z"/>
	<path fill="#1c1c1c" d="M385.074,779.819l-9.828-0.178l4.793-4.625c0.164-0.156,0.168-0.417,0.012-0.578   c-0.156-0.163-0.418-0.167-0.58-0.011l-5.801,5.594l0.283,0.295c0.002,0,0.002,0.002,0.002,0.002l5.311,5.508   c0.08,0.082,0.188,0.124,0.295,0.124c0.102,0,0.205-0.037,0.285-0.115c0.162-0.157,0.166-0.417,0.01-0.579l-4.625-4.795   l9.828,0.178c0.004,0,0.006,0,0.008,0c0.223,0,0.404-0.179,0.41-0.401C385.48,780.01,385.301,779.823,385.074,779.819z"/>
</svg>