<svg id="Слой_1" data-name="Слой 1" xmlns="http://www.w3.org/2000/svg" viewBox="0 0 343.13 36.3"><defs><style>.cls-1{fill:#e84735;}.cls-2{fill:#007bc2;}</style></defs><title>tattelecom-logo</title><g id="Слой_1-2" data-name="Слой_1"><g id="_2530457792176" data-name=" 2530457792176"><path class="cls-1" d="M450.45,403.48c-2.95,0-5.92-.06-8.87-.09-.6,0-.88.09-1.13.54-2.55,4.51-5.44,9.24-8,13.72h0a.25.25,0,0,1-.23.14c-.09,0-.14-.06-.2-.14h0c-2.55-4.51-5.41-9.21-8-13.72-.26-.45-.54-.57-1.13-.54-2.95,0-5.9.09-8.87.09-.62,0-.85.2-.85.88q0,16.54,0,33.11c0,.68.23.91.91.88,2.35,0,4.68,0,7,0,.85,0,1-.28,1-1.11,0-6.72,0-13.44,0-20.15,0-.34,0-.94.14-1s.23.11.31.23c2.07,3.74,4.14,7.46,6.18,11.2.2.34.31.54.71.54H435c.4,0,.51-.2.71-.54,2-3.74,4.11-7.46,6.18-11.2.06-.11.14-.31.31-.23s.14.65.14,1c0,6.72,0,13.44,0,20.15,0,.82.17,1.11,1,1.11,2.35-.06,4.71-.06,7,0,.68,0,.91-.2.91-.88V404.36C451.3,403.68,451.08,403.45,450.45,403.48Z" transform="translate(-108.17 -402.79)"/><path class="cls-2" d="M200.1,404.47c0-.79-.26-1-1-1-4.73,0-9.5,0-14.26,0s-9.47,0-14.23,0c-.74,0-1,.17-1,1,.06,2,.06,4,0,6,0,.79.28,1,1,1,2.81,0,5.61,0,8.42,0,.88,0,1.08.26,1.08,1.11,0,8.22,0,16.44-.06,24.69,0,.91.26,1.16,1.13,1.13,1.22,0,2.44-.06,3.63-.06s2.44,0,3.66.06c.88,0,1.13-.23,1.13-1.13,0-8.25,0-16.47-.06-24.69,0-.85.23-1.13,1.11-1.11,2.81.06,5.61,0,8.42,0,.74,0,1-.2,1-1C200,408.49,200,406.48,200.1,404.47Z" transform="translate(-108.17 -402.79)"/><path class="cls-2" d="M232.64,404.47c0-.79-.26-1-1-1-4.76,0-9.5,0-14.26,0s-9.5,0-14.26,0c-.74,0-1,.17-1,1,.06,2,.06,4,0,6,0,.79.28,1,1,1,2.81,0,5.61,0,8.42,0,.88,0,1.08.26,1.08,1.11,0,8.22,0,16.44,0,24.69,0,.91.23,1.16,1.13,1.13,1.19,0,2.41-.06,3.63-.06s2.41,0,3.63.06c.88,0,1.13-.23,1.13-1.13,0-8.25,0-16.47,0-24.69,0-.85.2-1.13,1.08-1.11,2.81.06,5.61,0,8.42,0,.74,0,1-.2,1-1C232.58,408.49,232.58,406.48,232.64,404.47Z" transform="translate(-108.17 -402.79)"/><path class="cls-2" d="M138.7,404.47c0-.79-.28-1-1-1-4.76,0-9.5,0-14.26,0s-9.5,0-14.23,0c-.74,0-1,.17-1,.91v.06c.06,2,.06,4,0,6,0,.79.28,1,1,1,2.81,0,5.61,0,8.42,0,.91,0,1.11.26,1.11,1.11-.06,8.22,0,16.44-.06,24.69,0,.91.26,1.16,1.13,1.13,1.22,0,2.44-.06,3.63-.06s2.44,0,3.66.06c.88,0,1.13-.23,1.13-1.13-.06-8.25,0-16.47-.06-24.69,0-.85.2-1.13,1.08-1.11,2.81.06,5.61,0,8.42,0,.77,0,1-.2,1-1C138.61,408.49,138.61,406.48,138.7,404.47Z" transform="translate(-108.17 -402.79)"/><path class="cls-1" d="M336.67,421c0-5.44,0-10.89,0-16.36,0-.88.28-1.11,1.13-1.08,2.35.06,4.73.06,7.11,0,.88,0,1.08.26,1.08,1.11-.06,3.63,0,7.29-.06,10.91,0,.85.23,1.16,1.11,1.11a28.81,28.81,0,0,0,5.61-.43,5.77,5.77,0,0,0,4.17-4,31,31,0,0,0,1.5-6.6c.28-2,.28-2,2.3-2s4.31,0,6.46-.06c.74,0,.91.23.74.94-.48,2.15-.77,4.34-1.36,6.46-1,3.8-2.24,7.51-5.36,10.23-.48.43-.28.77-.09,1.11,2.61,4.76,5.24,9.52,7.85,14.26,1,1.84,1,1.81-1.08,1.81H360a.94.94,0,0,1-1-.6c-2-4.11-4.14-8.19-6.21-12.3a1.16,1.16,0,0,0-1.3-.82c-1.56.09-3.09.09-4.62.06-.71,0-.91.23-.91.91,0,3.91,0,7.82,0,11.74,0,.79-.2,1-1,1-2.41-.06-4.82-.06-7.2,0-.79,0-1.08-.2-1.08-1C336.7,431.88,336.67,426.44,336.67,421Z" transform="translate(-108.17 -402.79)"/><path class="cls-2" d="M304.87,421c0-5.47,0-10.91,0-16.38,0-.85.26-1.08,1.11-1.08,7.71,0,15.39,0,23.1,0,.79,0,1.13.14,1.11,1-.09,1.79-.09,3.6,0,5.36.06,1-.34,1.08-1.11,1-4.59,0-9.18,0-13.78,0-1,0-1.22.28-1.16,1.19q.09,2,0,4.08c0,.68.23.91.91.88h12.27c1.19,0,1.19,0,1.19,1.19,0,1.67,0,3.34,0,5,0,.82-.23,1.08-1,1.08-4.05-.06-8.14,0-12.19-.06-1,0-1.22.31-1.16,1.22.06,1.47.06,2.95,0,4.45,0,.74.26.94,1,.91,4.85,0,9.67,0,14.51,0,.82,0,1,.23,1,1-.06,1.84,0,3.71,0,5.56,0,.65-.11.91-.85.91-8,0-16,0-24,0-.79,0-1-.31-1-1C304.87,431.88,304.87,426.44,304.87,421Z" transform="translate(-108.17 -402.79)"/><path class="cls-2" d="M237.54,420.91c0-5.41,0-10.83,0-16.27,0-.79.17-1.11,1-1.11q11.61,0,23.22,0c.79,0,1,.2,1,1-.06,1.79-.06,3.63,0,5.44,0,.79-.23,1-1,1-4.65,0-9.3,0-13.95,0-.85,0-1.13.2-1.11,1.08a30.9,30.9,0,0,1,0,4c-.06.94.28,1.11,1.16,1.11,4-.06,8,0,12,0,1.19,0,1.19,0,1.22,1.16,0,1.73,0,3.46,0,5.19,0,.71-.23.91-.91.91-4.17,0-8.31,0-12.47-.06-.77,0-1,.23-1,1,.06,1.47.09,3,0,4.45,0,.85.2,1.16,1.13,1.16,4.73-.06,9.47,0,14.23-.06,1,0,1.19.28,1.16,1.19-.09,1.84-.06,3.71,0,5.56,0,.54-.14.77-.71.77q-12.12,0-24.24,0c-.79,0-.79-.43-.79-1Z" transform="translate(-108.17 -402.79)"/><path class="cls-1" d="M396.74,424.11c-1.22,4.93-4.62,7.65-9.89,6.75a7,7,0,0,1-5.67-5,13.25,13.25,0,0,1-.77-4.37c0-3.88.88-7,3.71-9.13,3.86-2.95,10.63-1.9,12.3,4A14.69,14.69,0,0,1,396.74,424.11Zm9.33-8.16a16.08,16.08,0,0,0-4.45-8.36c-3.51-3.43-7.85-4.73-12.64-4.79a18.11,18.11,0,0,0-8.45,1.84,17,17,0,0,0-9.3,12.47,21.66,21.66,0,0,0,0,7.88,17.13,17.13,0,0,0,3.88,8.48A16.72,16.72,0,0,0,386.73,439a18.07,18.07,0,0,0,13.38-3.71,17.11,17.11,0,0,0,6.24-10.91A21.08,21.08,0,0,0,406.06,415.95Z" transform="translate(-108.17 -402.79)"/><path class="cls-2" d="M157,423.15c-2.18,0-4.37,0-6.55,0-.6,0-.74-.06-.51-.71,1.33-3.71,2.61-7.43,4-11.42l2.38,7.06c.45,1.36.91,2.72,1.36,4.05C158,423,157.92,423.15,157,423.15Zm15.51,14.57c-1.11-2.92-2.18-5.84-3.29-8.73-1.56-4.08-3.15-8.14-4.71-12.19q-2.42-6.34-4.76-12.67a.76.76,0,0,0-.88-.57h-9.24c-.45,0-.82,0-1,.57-1.08,2.75-2.21,5.47-3.29,8.22l-5.7,14.74c-1.42,3.54-2.86,7.06-4.28,10.6-.17.45-.06.68.48.65h7.94c.37,0,.62-.06.77-.48.74-2.21,1.5-4.39,2.27-6.58a1.13,1.13,0,0,1,1.28-.88c3.83,0,7.65,0,11.45,0a1.14,1.14,0,0,1,1.28.91c.71,2.18,1.47,4.34,2.18,6.52.11.37.26.51.65.51h8.48C172.57,438.34,172.66,438.17,172.49,437.72Z" transform="translate(-108.17 -402.79)"/><path class="cls-2" d="M274.71,410.93c0,13.61-1.79,20-6.26,20a.85.85,0,0,0-1,.85v5.92a1,1,0,0,0,1,1c8.42-.34,14.43-5.07,14.85-26.16a1,1,0,0,1,1-1h5a1,1,0,0,1,1,1v24.72a1,1,0,0,0,1,1h6.89a1,1,0,0,0,1-1V404.75a1,1,0,0,0-1-1H276.8a2.09,2.09,0,0,0-2.1,2.1Z" transform="translate(-108.17 -402.79)"/></g></g></svg>