<svg id="Layer_1" data-name="Layer 1" xmlns="http://www.w3.org/2000/svg" viewBox="0 0 60 60"><defs><style>.cls-1{fill-rule:evenodd;}</style></defs><title>menu-close-icon</title><path class="cls-1" d="M3454,6104a30,30,0,1,1,30-30A30,30,0,0,1,3454,6104Zm0-56a26,26,0,1,0,26,26A26,26,0,0,0,3454,6048Zm9.54,35.42a2,2,0,0,1-2.75-.09l-6.78-6.74-6.78,6.74a2,2,0,0,1-2.75.09,1.93,1.93,0,0,1,.09-2.73l6.78-6.75-6.78-6.74a1.93,1.93,0,0,1-.09-2.73,2,2,0,0,1,2.75.09l6.78,6.75,6.78-6.75a2,2,0,0,1,2.75-.09,1.93,1.93,0,0,1-.09,2.73l-6.79,6.74,6.79,6.75A1.93,1.93,0,0,1,3463.54,6083.41Z" transform="translate(-3424 -6043.99)"/></svg>