<svg id="Layer_1" data-name="Layer 1" xmlns="http://www.w3.org/2000/svg" viewBox="0 0 63.96 63.94"><defs><style>.cls-1{fill-rule:evenodd;}</style></defs><title>phone-icon</title><path class="cls-1" d="M3431.88,4827.47a.93.93,0,0,1,0-.16c1.63-1.12,10.78-7.14,12.49-8.24a3,3,0,0,1,1.29.4c.7.36,2.72,1.5,5.55,3.11l2.21,1.25,2.08-1.45a102.39,102.39,0,0,0,18.82-18.76l1.46-2.07-1.26-2.2c-1.22-2.13-2.68-4.71-3.12-5.54a2.82,2.82,0,0,1-.38-1.25.4.4,0,0,1,0-.05c1-1.53,7.16-10.84,8.29-12.48a1.37,1.37,0,0,1,.94.3c3.51,2.53,7.18,6.12,7.71,7.53-.35,7.48-6.95,18-18.6,29.59s-22.17,18.19-29.65,18.54c-1.41-.5-5-4.16-7.56-7.64a1.57,1.57,0,0,1-.28-.87m-3.87,0a5.53,5.53,0,0,0,1,3.15c.07.09,6.77,9.48,10.65,9.35,10.9-.34,23.71-10.91,32.54-19.71s19.43-21.57,19.77-32.49v-.09c0-3.82-9.29-10.54-9.38-10.6-2.53-1.76-5.3-1.12-6.43.48-.69,1-7.81,11.66-8.61,13a3.84,3.84,0,0,0-.52,2,6.8,6.8,0,0,0,.84,3.11c.54,1,2.32,4.14,3.19,5.67a99.09,99.09,0,0,1-17.84,17.78c-1.53-.87-4.65-2.64-5.68-3.18-1.94-1-3.87-1.14-5.18-.31s-11.86,7.85-12.87,8.58a4,4,0,0,0-1.47,3.26Z" transform="translate(-3428.01 -4776.03)"/></svg>